<svg viewBox="0 0 300 180" xmlns="http://www.w3.org/2000/svg"><path d="m213.236 54.503c-1.292-2.153-3.174-2.632-5.025-2.68h-42.301l2.185-5.79-6.141 1.611-1.755-3.637-3.493 3.94 2.249-10.065-5.503 3.015-3.78-7.273-3.78 7.273-5.503-3.015 2.249 10.065-3.493-3.94-1.755 3.637-6.141-1.611 2.185 5.79h-42.299c-1.85.048-3.732.526-5.024 2.68-.814 1.467-1.053 3.445.143 5.407l58.921 83.613c1.117 1.372 2.552 2.169 4.498 2.169s3.381-.797 4.498-2.169l58.921-83.613c1.197-1.961.958-3.939.144-5.407zm-76.179-5.184c.925.271 1.196-.096 1.675-.526l.845-1.739 3.86 4.354c.287.319.766.287 1.101.032.303-.223.495-.622.383-1.085l-2.058-9.171 2.377 1.292c.877.622 1.627.207 2.074-.606l2.361-4.562 2.361 4.562c.447.813 1.196 1.228 2.074.606l2.361-1.292-2.042 9.171c-.112.463.08.862.383 1.085.335.255.814.287 1.101-.032l3.86-4.354.845 1.739c.479.431.75.797 1.675.526l3.063-.813-1.372 3.7c-.526.83-.207 1.755.303 2.297l1.212 1.212-7.082 5.407c-.941.798-.303 2.504.654 3.988l-7.784-1.324c-.447-.016-.893.064-.893.973v2.6h-1.436v-2.6c-.016-.909-.447-.989-.893-.973l-7.784 1.324c.957-1.483 1.595-3.19.654-3.988l-7.082-5.407.489-.489.724-.724c.51-.542.83-1.468.287-2.297l-1.356-3.7zm75.127 8.183c-.08.574-.255 1.005-.526 1.499l-58.969 83.644c-.526.575-1.053.941-1.803 1.196-.415.096-.813.144-1.212.144-.08 0-.175 0-.255 0-.255-.016-.494-.048-.734-.096-.925-.239-1.547-.686-2.169-1.404l-58.954-83.723c-.159-.351-.287-.654-.367-1.021-.255-1.515.383-2.919 1.723-3.716.734-.367 1.451-.463 2.265-.51l42.444.016-1.696 1.696-40.716-.006c-.622.032-1.244.064-1.739.478-.67.67-.813 1.436-.415 2.265l58.794 83.469c.479.558.925.797 1.643.861.846.016 1.34-.159 1.93-.781l.925-1.34 57.853-82.082c.494-.877.367-1.802-.415-2.456-.431-.303-.925-.367-1.436-.399l-40.935-.006-1.701-1.701h42.732c.718.064 1.34.175 1.978.494 1.26.752 1.898 2.043 1.755 3.479z" fill-rule="evenodd"/></svg>